<?xml version="1.0" standalone="no"?>
<!DOCTYPE svg PUBLIC "-//W3C//DTD SVG 20010904//EN"
 "http://www.w3.org/TR/2001/REC-SVG-20010904/DTD/svg10.dtd">
<svg version="1.0" xmlns="http://www.w3.org/2000/svg"
 width="166.000000pt" height="118.000000pt" viewBox="0 0 166.000000 118.000000"
 preserveAspectRatio="xMidYMid meet">
<metadata>
Created by potrace 1.16, written by Peter Selinger 2001-2019
</metadata>
<g transform="translate(0.000000,118.000000) scale(0.100000,-0.100000)"
fill="#000000" stroke="none">
<path d="M460 1114 c0 -12 9 -88 20 -169 11 -81 20 -152 20 -156 0 -5 29 -9
65 -9 l65 0 19 -39 c11 -21 30 -42 43 -46 13 -4 131 -10 263 -14 l240 -6 -77
-55 c-43 -30 -78 -58 -78 -61 0 -4 52 -12 115 -19 63 -7 115 -16 115 -19 0 -4
-86 -48 -191 -98 l-191 -92 20 -33 c11 -18 41 -70 67 -116 26 -46 53 -82 59
-80 31 8 555 373 544 379 -7 3 -74 14 -148 23 -74 9 -135 18 -137 19 -1 2 65
36 148 77 l150 75 -193 5 -193 5 63 45 64 45 -352 3 -351 2 -44 93 c-100 214
-124 261 -125 241z"/>
<path d="M135 775 c6 -3 80 -14 165 -25 225 -30 207 -23 215 -79 l7 -48 89
-13 c50 -6 92 -10 95 -8 2 3 -5 25 -16 50 -19 43 -23 46 -67 52 -110 16 -111
16 -118 47 l-7 29 -186 -1 c-103 0 -182 -2 -177 -4z"/>
<path d="M245 652 c6 -5 75 -46 154 -91 l144 -81 -7 31 c-3 17 -6 43 -6 58 0
46 -13 53 -116 67 -55 7 -117 16 -139 19 -24 4 -36 2 -30 -3z"/>
<path d="M720 595 c0 -14 93 -196 99 -193 4 2 54 37 110 78 87 63 100 76 80
78 -117 17 -289 38 -289 37z"/>
</g>
</svg>
